<?xml version="1.0" encoding="UTF-8"?> <svg xmlns="http://www.w3.org/2000/svg" width="85" height="24" viewBox="0 0 85 24" fill="none"><path d="M29.3797 8.29639H31.4156V13.2417C32.0159 12.7707 32.7206 12.5091 33.582 12.5091C34.7304 12.5091 35.7222 12.9016 36.5052 13.7127C37.3144 14.4977 37.7059 15.4658 37.7059 16.6171C37.7059 17.3497 37.5232 18.0562 37.1578 18.6842C36.7923 19.3122 36.2964 19.8093 35.6439 20.1756C35.0175 20.542 34.3128 20.7251 33.5559 20.7251C32.6945 20.7251 31.9898 20.4896 31.3895 19.9925V20.4896H29.3536V8.29639H29.3797ZM32.0942 18.1609C32.5118 18.5534 33.0077 18.7627 33.582 18.7627C34.1823 18.7627 34.6782 18.5534 35.0958 18.1347C35.5134 17.7161 35.7222 17.1927 35.7222 16.6171C35.7222 16.0415 35.5134 15.5443 35.0958 15.0995C34.6782 14.6547 34.1562 14.4715 33.582 14.4715C33.0077 14.4715 32.5118 14.6808 32.0942 15.0733C31.6766 15.4658 31.4417 15.963 31.4156 16.5124V16.6956C31.4417 17.2712 31.6505 17.7422 32.0942 18.1609Z" fill="#2C7370"></path><path d="M38.7498 8.29639H40.7857V17.9516C40.7857 18.2394 40.8379 18.4487 40.9684 18.6057C41.0989 18.7365 41.3077 18.815 41.647 18.815C41.7775 18.815 41.8819 18.815 41.9602 18.7889V20.5681C41.6209 20.6466 41.3338 20.699 41.0728 20.699C40.3159 20.699 39.7678 20.4896 39.3501 20.0971C38.9586 19.7047 38.7498 19.129 38.7498 18.3964V8.29639Z" fill="#2C7370"></path><path d="M43.7872 13.7124C44.5964 12.9274 45.5621 12.5088 46.7105 12.5088C47.4674 12.5088 48.1722 12.6919 48.7986 13.0583C49.4511 13.4246 49.947 13.9217 50.3124 14.5497C50.6778 15.1777 50.8605 15.858 50.8605 16.6168C50.8605 17.3495 50.6778 18.0559 50.3124 18.6839C49.947 19.3119 49.4511 19.809 48.7986 20.1754C48.1461 20.5417 47.4674 20.7248 46.7105 20.7248C45.9536 20.7248 45.2489 20.5417 44.6225 20.1754C43.9961 19.809 43.474 19.3119 43.1086 18.6839C42.7432 18.0559 42.5605 17.3756 42.5605 16.6168C42.5866 15.4655 42.9781 14.4974 43.7872 13.7124ZM45.1967 18.1344C45.6143 18.5531 46.1363 18.7624 46.7105 18.7624C47.3108 18.7624 47.8329 18.5531 48.2505 18.1344C48.6681 17.7158 48.8769 17.1925 48.8769 16.6168C48.8769 16.0412 48.6681 15.544 48.2505 15.0992C47.8329 14.6805 47.3108 14.4712 46.7105 14.4712C46.1102 14.4712 45.6143 14.6805 45.1967 15.0992C44.7791 15.5179 44.5703 16.0412 44.5703 16.6168C44.5703 17.1925 44.7791 17.6896 45.1967 18.1344Z" fill="#2C7370"></path><path d="M52.8436 13.7124C53.6528 12.9274 54.6185 12.5088 55.7669 12.5088C56.5238 12.5088 57.2286 12.6919 57.855 13.0583C58.5075 13.4246 59.0034 13.9217 59.3688 14.5497C59.7342 15.1777 59.9169 15.858 59.9169 16.6168C59.9169 17.3495 59.7342 18.0559 59.3688 18.6839C59.0034 19.3119 58.5075 19.809 57.855 20.1754C57.2025 20.5417 56.5238 20.7248 55.7669 20.7248C55.01 20.7248 54.3053 20.5417 53.6789 20.1754C53.0524 19.809 52.5304 19.3119 52.165 18.6839C51.7996 18.0559 51.6169 17.3756 51.6169 16.6168C51.6169 15.4655 52.0345 14.4974 52.8436 13.7124ZM54.2531 18.1344C54.6707 18.5531 55.1927 18.7624 55.7669 18.7624C56.3672 18.7624 56.8893 18.5531 57.3069 18.1344C57.7245 17.7158 57.9333 17.1925 57.9333 16.6168C57.9333 16.0412 57.7245 15.544 57.3069 15.0992C56.8893 14.6544 56.3672 14.4712 55.7669 14.4712C55.1666 14.4712 54.6707 14.6805 54.2531 15.0992C53.8355 15.5179 53.6267 16.0412 53.6267 16.6168C53.6006 17.1925 53.8355 17.6896 54.2531 18.1344Z" fill="#2C7370"></path><path d="M60.8829 12.6658H62.9188V13.2414C63.1276 13.0844 63.3103 12.9536 63.4408 12.8751C63.5713 12.7966 63.7801 12.7181 64.0411 12.6396C64.3021 12.5611 64.6153 12.5088 64.9285 12.5088C66.0509 12.5088 66.86 12.9013 67.4081 13.6862C67.7474 13.2676 68.165 12.9798 68.6087 12.7966C69.0785 12.6135 69.5484 12.535 70.0182 12.535C70.9317 12.535 71.6886 12.8228 72.2367 13.3984C72.7848 13.9741 73.0719 14.8375 73.0719 16.015V20.5417H71.0361V16.3552C71.0361 15.9627 71.01 15.6487 70.9317 15.387C70.8534 15.1254 70.749 14.9422 70.5924 14.8114C70.4358 14.6805 70.3053 14.6021 70.1487 14.5497C69.9921 14.4974 69.8094 14.4712 69.6267 14.4712C68.5304 14.4712 68.0084 15.073 68.0084 16.3028V20.5155H65.9726V16.329C65.9726 15.9365 65.9465 15.6225 65.8682 15.3609C65.7899 15.0992 65.6855 14.916 65.5289 14.7852C65.3722 14.6544 65.2417 14.5759 65.0851 14.5236C64.9285 14.4712 64.7458 14.4451 64.5631 14.4451C63.493 14.4451 62.9449 15.0469 62.9449 16.2767V20.4893H60.909V12.6658H60.8829Z" fill="#2C7370"></path><path d="M74.4818 9.15978C74.7167 8.92429 75.0299 8.79346 75.3953 8.79346C75.7607 8.79346 76.0478 8.92429 76.2827 9.15978C76.5176 9.39527 76.6481 9.70926 76.6481 10.0756C76.6481 10.4419 76.5176 10.7559 76.2827 10.9914C76.0478 11.2269 75.7346 11.3577 75.3953 11.3577C75.0299 11.3577 74.7167 11.2269 74.4818 10.9914C74.2469 10.7559 74.1164 10.4419 74.1164 10.0756C74.1164 9.70926 74.2208 9.42144 74.4818 9.15978ZM74.3774 12.666H76.4132V20.4896H74.3774V12.666Z" fill="#2C7370"></path><path d="M77.7178 12.6658H79.7537V13.2414C79.9625 13.0844 80.1191 12.9798 80.2496 12.9013C80.3801 12.8228 80.5889 12.7443 80.876 12.6396C81.1631 12.5611 81.4763 12.5088 81.7895 12.5088C82.2332 12.5088 82.6247 12.5873 83.0163 12.7181C83.3817 12.8489 83.721 13.0583 84.0342 13.3199C84.3213 13.5816 84.5562 13.9479 84.7389 14.3927C84.9216 14.8375 84.9999 15.3609 84.9999 15.9627V20.4893H82.9641V16.3028C82.9641 15.073 82.4159 14.4451 81.3458 14.4451C80.2757 14.4451 79.7276 15.0469 79.7276 16.2767V20.4893H77.6917V12.6658H77.7178Z" fill="#2C7370"></path><path d="M19.1213 17.9512C19.1213 17.9512 18.26 16.7737 15.5455 17.2709C15.5455 17.2709 16.0936 20.0444 11.6826 21.2481C11.6826 21.2219 17.1638 22.2947 19.1213 17.9512Z" fill="#2C7370"></path><path d="M0.068436 2.74884C0.068436 2.74884 -0.662384 -1.43768 2.65241 2.06853C5.65399 5.39158 5.65399 4.63278 10.0389 6.09806C16.2248 12.3517 1.71278 11.8545 0.068436 2.74884Z" fill="#2C7370"></path><path d="M2.83493 13.6338C2.62612 12.1424 2.18241 9.13333 8.60319 14.9945C13.1447 19.1548 4.92298 16.9307 2.83493 13.6338Z" fill="#2C7370"></path><path d="M21.1839 11.1481C21.1839 11.1481 20.714 13.1106 18.7304 14.6543L13.458 14.131C16.8772 12.4564 17.0599 9.86601 17.0599 9.86601C17.0599 9.86601 20.1137 9.29036 21.1839 11.1481Z" fill="#2C7370"></path><path d="M0.0683823 2.74902C0.0683823 2.74902 4.5055 6.4384 16.5901 5.05161C22.8282 4.55446 21.5493 10.2063 21.1839 11.1482C21.1839 11.1482 19.9049 8.89798 15.2329 10.2324C12.7011 11.0174 2.05204 13.9218 0.0683823 2.74902Z" fill="#47B8B3"></path><path d="M2.73005 12.6394C2.73005 12.6394 3.87848 15.2036 15.0496 13.9215C20.348 13.1627 19.4084 17.2446 19.1213 17.9511C19.1213 17.9511 17.7641 16.4334 13.7706 17.6632C11.6304 18.3697 3.01715 19.9135 2.73005 12.6394Z" fill="#47B8B3"></path><path d="M19.1217 17.9512C19.1217 17.9512 17.0337 22.8703 9.90816 20.8294C5.39273 19.5473 4.76631 21.1434 5.18392 21.8499C5.18392 21.8499 6.25406 23.603 10.1431 23.6553C12.0484 23.7076 17.1381 23.2628 19.1217 17.9512Z" fill="#47B8B3"></path></svg> 