<?xml version="1.0" encoding="utf-8"?>
<!-- Generator: Adobe Illustrator 21.0.2, SVG Export Plug-In . SVG Version: 6.00 Build 0)  -->
<svg version="1.1" id="Layer_1" xmlns="http://www.w3.org/2000/svg" xmlns:xlink="http://www.w3.org/1999/xlink" x="0px" y="0px"
	 viewBox="0 0 624 150" style="enable-background:new 0 0 624 150;" xml:space="preserve">
<style type="text/css">
	.st0{fill:#21304E;}
	.st1{fill:#00D85D;}
</style>
<path id="path-1" class="st0" d="M603.2,118.8L603.2,118.8c6.7-1.4,13.4,2.5,15.5,9l0.1,0.4c0.1,0.2,0.1,0.4,0.2,0.6
	c2.1,7.5-2.3,15.3-9.9,17.4c-4.6,1.3-10.5,1.9-17.8,1.9c-10.5,0-18.9-3.3-24.9-10.1c-6.1-6.7-9.1-16.6-9.1-29.6v-55h-0.8
	c-7.3,0-13.2-5.9-13.2-13.2s5.9-13.2,13.2-13.2h0.8v-9.6c0-9.1,6.9-16.6,15.9-17.5c0.4,0,0.9-0.1,1.3-0.1c8.1,0,14.6,6.5,14.6,14.6
	v12.5h19.1c7.3,0,13.2,5.9,13.2,13.2s-5.9,13.2-13.2,13.2h-19.1V104c0,5.2,0.8,9.1,2.4,11.5c1.6,2.5,4.3,3.7,8,3.7
	C600.6,119.3,601.8,119.1,603.2,118.8z M486.7,122.7c4.5,0,8.1-0.9,10.7-2.7c2.6-1.8,3.9-4.2,3.9-7.1c0-1.8-0.8-3.4-2.4-4.8
	c-1.6-1.4-3.8-2.7-6.6-3.9c-2.8-1.2-7-2.7-12.7-4.5c-3.6-1.2-6.8-2.4-9.6-3.6c-2.8-1.2-5.7-2.6-8.6-4.2c-2.9-1.6-5.5-3.4-7.6-5.4
	c-2.1-2-4-4.2-5.7-6.7c-1.7-2.5-3-5.3-3.9-8.4c-0.9-3.2-1.3-6.6-1.3-10.3c0-7.1,1.9-13.3,5.6-18.7c3.8-5.4,8.9-9.6,15.3-12.5
	c6.5-2.9,13.7-4.4,21.8-4.4c8.3,0,16,1.2,23,3.6c2.2,0.7,4.9,2,8.1,3.7c6.6,3.6,9,11.8,5.4,18.4c-0.2,0.3-0.4,0.7-0.6,1
	c-4,6-12,7.8-18.2,4.1c-1.4-0.8-2.6-1.4-3.6-1.9c-5-2.1-9.7-3.2-14.3-3.2c-3,0-5.7,0.8-8.1,2.3c-2.4,1.5-3.6,3.7-3.6,6.6
	c0,2.4,1.4,4.5,4.2,6.4c2.8,1.9,7.4,4,13.6,6.4c13.2,4.8,22,8.7,26.4,11.5c7.7,4.8,12.3,11.1,13.8,19c0.5,2.4,0.7,5,0.7,8
	c0,11-3.9,19.9-11.8,26.8c-7.9,6.8-19.3,10.2-34.3,10.2c-9.9,0-21.9-3.6-36-10.8c-6-3-8.3-10.3-5.3-16.2c0.3-0.5,0.6-1,0.9-1.5
	c4.2-6,12.2-7.9,18.6-4.4C473.5,120.3,480.9,122.7,486.7,122.7z M322.8,130.5c-5.6-5.6-5.6-14.7,0-20.3c5.6-5.6,14.7-5.6,20.3,0
	c14.9,14.9,29.6,14.7,44.9-0.6c5.6-5.6,14.7-5.6,20.3,0c5.6,5.6,5.6,14.7,0,20.3C394.9,143.3,380,150,365.1,150
	C350.4,150,335.8,143.5,322.8,130.5z M340.3,74.2h52.5c-1.7-6.5-4.7-11.6-9-15.3c-4.4-3.7-9.9-5.5-16.7-5.5
	c-6.6,0-12.2,1.8-16.9,5.4C345.4,62.3,342.1,67.5,340.3,74.2z M396.6,33.1c8.9,5.2,15.7,12.4,20.6,21.5c4.8,9.2,7.3,19.5,7.3,31.1
	c0,5.9-4.8,10.7-10.7,10.7l-96.9,0c-5.4,0-9.8-4.4-9.8-9.8c0-8.9,1.5-17.1,4.5-24.8c3-7.7,7.1-14.2,12.3-19.5
	c5.2-5.4,11.4-9.5,18.7-12.5c7.3-3,15.1-4.5,23.4-4.5C377.5,25.3,387.7,27.9,396.6,33.1z M237.5,119.5v0.7h43.7
	c7.2,0,13.1,5.9,13.1,13.1c0,7.2-5.9,13.1-13.1,13.1h-75c-6,0-10.9-4.9-10.9-10.9c0-7,2.4-13.9,6.9-19.3l50.5-62.3v-0.4h-40
	c-7.2,0-13-5.8-13-13s5.8-13,13-13h72.3c5.9,0,10.7,4.8,10.7,10.7c0,6.9-2.4,13.6-6.8,19L237.5,119.5z"/>
<path class="st1" d="M133.8,0H75C33.6,0,0,33.6,0,75c0,41.4,33.6,75,75,75s75-33.6,75-75V16.2C150,7.2,142.8,0,133.8,0z M117.9,77.6
	C104.5,91,89.4,97.8,74.4,97.8c-14.8,0-29.5-6.5-42.6-19.6c-5.6-5.6-5.6-14.8,0-20.5c5.6-5.6,14.8-5.6,20.5,0
	c15,15,29.8,14.8,45.2-0.6c5.7-5.6,14.8-5.6,20.5,0C123.6,62.7,123.6,71.9,117.9,77.6z"/>
</svg>
